<?xml version="1.0" encoding="iso-8859-1"?>
<!-- Uploaded to: SVG Repo, www.svgrepo.com, Generator: SVG Repo Mixer Tools -->
<svg version="1.1" id="Layer_1" xmlns="http://www.w3.org/2000/svg" xmlns:xlink="http://www.w3.org/1999/xlink" 
	 viewBox="0 0 512.001 512.001" xml:space="preserve">
<polygon style="fill:#FCDA49;" points="288.681,51.746 223.32,51.746 8.172,19.066 8.172,117.108 223.32,84.427 288.681,84.427 
	503.829,117.108 503.829,19.066 "/>
<polygon style="fill:#FFFFFF;" points="223.32,84.427 223.32,117.108 288.681,117.108 288.681,84.427 256,62.64 "/>
<polygon style="fill:#FE9528;" points="288.681,43.576 256,19.066 245.107,51.746 256,84.427 288.681,84.427 "/>
<polygon style="fill:#FCDA49;" points="223.32,43.576 223.32,84.427 256,84.427 256,19.066 "/>
<path style="fill:#4B8D8F;" d="M503.829,256c-8.925,18.377-27.764,31.048-49.566,31.048l-32.681,108.391l32.681,108.391h49.566V256z
	"/>
<path style="fill:#63ABA1;" d="M404.697,256c-8.924,18.376-27.764,31.048-49.566,31.048c-21.801,0-40.642-12.67-49.566-31.048
	c-8.924,18.376-27.764,31.048-49.566,31.048s-40.642-12.67-49.566-31.048c-8.924,18.376-27.764,31.048-49.566,31.048
	s-40.642-12.67-49.566-31.048c-8.924,18.376-27.764,31.048-49.566,31.048S17.097,274.378,8.172,256v247.828h446.091V287.047
	C432.461,287.047,413.621,274.377,404.697,256z"/>
<g>
	<path style="fill:#FFFFFF;" d="M462.433,360.578h-16.34c-4.513,0-8.17-3.657-8.17-8.17c0-4.513,3.657-8.17,8.17-8.17h16.34
		c4.513,0,8.17,3.657,8.17,8.17C470.603,356.922,466.945,360.578,462.433,360.578z"/>
	<path style="fill:#FFFFFF;" d="M65.908,393.259h-16.34c-4.512,0-8.17-3.657-8.17-8.17c0-4.513,3.658-8.17,8.17-8.17h16.34
		c4.512,0,8.17,3.657,8.17,8.17C74.078,389.602,70.42,393.259,65.908,393.259z"/>
</g>
<polygon style="fill:#B3EFFF;" points="314.034,315.915 283.234,266.894 306.903,217.873 299.575,117.108 212.426,117.108 
	210.049,149.788 264.517,149.788 256,266.894 290.265,438.467 322.946,438.467 "/>
<polygon style="fill:#FFFFFF;" points="210.049,149.788 205.098,217.873 228.766,266.894 197.967,315.915 189.054,438.467 
	290.265,438.467 269.271,149.788 "/>
<polygon style="fill:#D3552B;" points="306.903,217.873 274.222,217.873 256,266.894 281.353,315.915 314.034,315.915 "/>
<polygon style="fill:#E86C16;" points="205.098,217.873 197.967,315.915 281.353,315.915 274.222,217.873 "/>
<polygon style="fill:#705147;" points="471.148,416.68 449.361,460.254 471.148,503.829 503.829,503.829 503.829,416.68 "/>
<rect x="157.956" y="416.678" style="fill:#875B51;" width="313.189" height="87.148"/>
<path d="M343.023,51.66c0.409,0,0.822-0.031,1.237-0.094l160.794-24.424c4.462-0.678,7.529-4.843,6.851-9.304
	c-0.679-4.462-4.856-7.531-9.304-6.851L341.807,35.412c-4.462,0.678-7.529,4.843-6.851,9.304
	C335.571,48.762,339.053,51.66,343.023,51.66z"/>
<path d="M8.162,125.279c0.409,0,0.821-0.031,1.238-0.094l149.786-22.752c4.461-0.678,7.529-4.843,6.851-9.304
	c-0.678-4.462-4.845-7.524-9.305-6.851L6.946,109.03c-4.461,0.678-7.529,4.843-6.851,9.304
	C0.709,122.379,4.192,125.279,8.162,125.279z"/>
<path d="M503.829,408.51h-174.87l-9.02-124.022c10.291,6.891,22.519,10.729,35.192,10.729c19.409,0,37.698-9.106,49.566-23.996
	c11.867,14.89,30.157,23.996,49.566,23.996c24.058,0,46.399-13.993,56.914-35.648c1.972-4.059,0.279-8.947-3.78-10.918
	c-4.062-1.973-8.947-0.278-10.918,3.78c-7.922,16.313-24.099,26.445-42.217,26.445s-34.294-10.133-42.217-26.445
	c-1.366-2.815-4.22-4.601-7.349-4.601s-5.983,1.787-7.349,4.601c-7.922,16.313-24.099,26.445-42.217,26.445
	c-14.409,0-28.04-6.694-36.908-17.995l-9.862-135.604h13.001c4.513,0,8.17-3.657,8.17-8.17V84.427c0-4.513-3.657-8.17-8.17-8.17
	h-24.51v-16.82c0.883,0.313,1.801,0.479,2.717,0.479c2.484,0,4.937-1.127,6.543-3.268c2.707-3.609,1.975-8.731-1.634-11.438
	l-40.306-30.23V8.172c0-4.513-3.657-8.17-8.17-8.17c-4.512,0-8.17,3.657-8.17,8.17v6.808l-40.306,30.23
	c-3.61,2.707-4.341,7.829-1.634,11.438c2.196,2.929,5.982,3.963,9.26,2.803v16.805h-24.51c-4.512,0-8.17,3.657-8.17,8.17v32.681
	c0,4.513,3.658,8.17,8.17,8.17h13.001l-9.862,135.604c-8.868,11.301-22.5,17.995-36.908,17.995
	c-18.118,0-34.294-10.133-42.216-26.445c-1.367-2.815-4.221-4.601-7.35-4.601c-3.129,0-5.983,1.787-7.35,4.601
	c-7.922,16.313-24.099,26.445-42.216,26.445s-34.294-10.134-42.216-26.445c-1.972-4.059-6.857-5.75-10.919-3.78
	c-4.059,1.972-5.752,6.86-3.78,10.918c10.518,21.655,32.858,35.648,56.916,35.648c19.409,0,37.699-9.106,49.566-23.996
	c11.866,14.89,30.157,23.996,49.566,23.996c12.672,0,24.9-3.838,35.192-10.729l-9.02,124.022h-25.082c-4.512,0-8.17,3.657-8.17,8.17
	v87.148c0,4.513,3.658,8.17,8.17,8.17c4.512,0,8.17-3.657,8.17-8.17V424.85h337.7c4.513,0,8.17-3.657,8.17-8.17
	S508.341,408.51,503.829,408.51z M264.171,108.938v-16.34h16.34v16.34H264.171z M231.49,108.938v-16.34h16.34v16.34H231.49z
	 M313.191,92.597v16.34h-16.34v-16.34H313.191z M231.49,47.661L256,29.278l24.51,18.383v28.596H231.49L231.49,47.661L231.49,47.661z
	 M198.809,92.597h16.34v16.34h-16.34V92.597z M291.976,125.278l6.14,84.425h-84.232l6.14-84.425H291.976z M205.565,324.085h43.107
	c4.512,0,8.17-3.657,8.17-8.17c0-4.513-3.658-8.17-8.17-8.17h-41.918l5.942-81.702h86.609l5.942,81.702h-23.895
	c-4.513,0-8.17,3.657-8.17,8.17c0,4.513,3.657,8.17,8.17,8.17h25.082l6.14,84.425h-113.15L205.565,324.085z"/>
<path d="M505.055,109.03l-32.681-4.964c-4.459-0.676-8.627,2.389-9.304,6.851c-0.678,4.461,2.389,8.627,6.851,9.304l32.681,4.964
	c0.416,0.063,0.829,0.094,1.237,0.094c3.971,0,7.452-2.899,8.067-6.945C512.584,113.873,509.516,109.708,505.055,109.03z"/>
<path d="M355.269,86.278c-4.46-0.67-8.627,2.388-9.304,6.851c-0.678,4.461,2.389,8.627,6.851,9.304l84.425,12.823
	c0.416,0.063,0.829,0.094,1.237,0.094c3.97,0,7.452-2.899,8.067-6.945c0.678-4.461-2.389-8.627-6.851-9.304L355.269,86.278z"/>
<path d="M6.944,27.143l32.681,4.964c0.416,0.063,0.829,0.094,1.238,0.094c3.971,0,7.453-2.899,8.068-6.945
	c0.678-4.461-2.39-8.627-6.851-9.304L9.399,10.988c-4.462-0.671-8.628,2.389-9.305,6.851C-0.583,22.299,2.485,26.466,6.944,27.143z"
	/>
<path d="M72.306,37.071l95.434,14.497c0.416,0.063,0.829,0.094,1.238,0.094c3.971,0,7.453-2.899,8.068-6.945
	c0.678-4.461-2.389-8.627-6.851-9.304L74.76,20.915c-4.459-0.678-8.628,2.389-9.305,6.851
	C64.778,32.227,67.845,36.393,72.306,37.071z"/>
</svg>